<?xml version="1.0" encoding="utf-8"?>
<!-- Generator: Adobe Illustrator 24.0.1, SVG Export Plug-In . SVG Version: 6.00 Build 0)  -->
<svg version="1.1" id="Layer_1" xmlns="http://www.w3.org/2000/svg" xmlns:xlink="http://www.w3.org/1999/xlink" x="0px" y="0px"
	 viewBox="0 0 648 128" style="enable-background:new 0 0 648 128;" xml:space="preserve">
<style type="text/css">
	.st0{display:none;fill:#FFFFFF;}
	.st1{fill:url(#SVGID_1_);}
	.st2{fill:url(#SVGID_2_);}
	.st3{fill:url(#SVGID_3_);}
	.st4{fill:url(#SVGID_4_);}
</style>
<g>
	<g>
		<polygon class="st0" points="31.8,73.3 52.6,84.6 52.6,77.8 39.6,70.9 		"/>
		<polygon class="st0" points="59.7,68.1 77,63.1 77,56.6 59.7,61.6 		"/>
		<polygon class="st0" points="39.7,56.6 31.8,59 52.6,70.1 52.6,63.6 		"/>
		<path class="st0" d="M79.6,48.5L79.6,48.5c0.1,0,0.3,0,0.4,0.1h0.1c0.1,0,0.3,0.1,0.4,0.1l0,0l0,0c0.1,0,0.2,0.1,0.3,0.1l0,0
			L60.2,37.6c0,0-0.1-0.1-0.2-0.1c0,0-0.1,0-0.2-0.1c-0.2-0.1-0.3-0.1-0.5-0.2h-0.1h-0.1c-0.2,0-0.4-0.1-0.6-0.1c-0.1,0-0.2,0-0.3,0
			c-0.3,0-0.6,0-0.9,0c-0.3,0-0.6,0.1-0.9,0.2l-24.7,7.3l20.7,11.3l24.8-7.3c0.3-0.1,0.6-0.2,0.9-0.2s0.6,0,0.9,0c0,0,0,0,0.1,0l0,0
			C79.3,48.4,79.4,48.5,79.6,48.5z"/>
	</g>
</g>
<g>
	<polygon points="171.6,57.5 148.7,15.1 137.8,15.1 137.8,72.4 147.2,72.4 147.2,30.7 170,72.4 181.1,72.4 181.1,15.1 171.6,15.1 	
		"/>
	<path d="M219.1,33c-2.6-1.4-5.7-2.1-9.4-2.1s-6.8,0.7-9.4,2.1c-2.6,1.4-4.6,3.4-5.9,6c-1.4,2.6-2,5.8-2,9.5v6.7c0,3.8,0.7,7,2,9.6
		c1.4,2.7,3.3,4.7,5.9,6.1s5.7,2.1,9.4,2.1s6.8-0.7,9.4-2.1s4.6-3.4,5.9-6.1c1.4-2.6,2-5.8,2-9.6v-6.8c0-3.7-0.7-6.9-2-9.5
		C223.6,36.4,221.7,34.4,219.1,33z M217.3,55.3c0,2.6-0.7,4.7-2,6.1c-1.3,1.5-3.2,2.2-5.6,2.2c-2.4,0-4.3-0.7-5.6-2.2s-2-3.5-2-6.1
		v-6.8c0-2.6,0.7-4.7,2-6.1c1.3-1.4,3.2-2.1,5.6-2.1c2.4,0,4.3,0.7,5.6,2.1c1.3,1.4,2,3.5,2,6.1V55.3z"/>
	<polygon points="250.5,58.5 241.5,31.5 231.6,31.5 247,72.5 254,72.5 269.4,31.5 259.5,31.5 	"/>
	<path d="M300.4,32.7c-2.5-1.2-5.5-1.8-9-1.8c-3.2,0-6.1,0.5-8.8,1.6c-2.6,1-4.7,2.5-6.3,4.4l6.4,5.6c1.2-0.9,2.5-1.6,4-2.1
		s3.1-0.7,4.7-0.7c2.4,0,4.3,0.6,5.6,1.8c1.3,1.2,2,2.9,2,5.1v1.7h-10.4c-4.8,0-8.4,1-10.7,3c-2.4,2-3.5,5.1-3.5,9.1
		c0,4.3,1.1,7.4,3.4,9.5s5.7,3.1,10.4,3.1c1.9,0,3.7-0.2,5.3-0.7c1.6-0.4,3-1.1,4.2-2c0.6-0.5,1-1,1.4-1.5v3.7h9V46.2
		c0-3.2-0.7-5.9-2-8.2C304.8,35.7,302.9,33.9,300.4,32.7z M296.9,64.2c-1.4,0.7-3.6,1-6.6,1c-2.4,0-4.1-0.4-5.3-1.2
		c-1.2-0.8-1.7-2-1.7-3.6s0.4-2.7,1.3-3.5c0.9-0.7,2.2-1.1,4.1-1.1H299v5.3C299,62.5,298.3,63.5,296.9,64.2z"/>
	<path d="M351.9,29.7c0.8-1.8,2-3.1,3.6-4s3.4-1.4,5.5-1.4c1.6,0,3.1,0.4,4.5,1.1s2.5,1.8,3.5,3.1c1,1.4,1.7,3,2.2,4.9h10.1
		c-0.7-3.9-2-7.2-3.8-10.1c-1.9-2.8-4.2-5-7-6.5s-6-2.2-9.4-2.2c-4.2,0-7.8,0.9-10.9,2.6s-5.4,4.2-7.1,7.4c-1.6,3.2-2.4,7-2.4,11.4
		v15.7c0,4.4,0.8,8.2,2.4,11.4s4,5.7,7.1,7.4c3.1,1.7,6.7,2.6,10.9,2.6c3.5,0,6.6-0.8,9.4-2.2s5.1-3.7,7-6.5
		c1.9-2.8,3.1-6.2,3.8-10.1h-10.1c-0.4,1.9-1.2,3.6-2.1,4.9c-1,1.4-2.1,2.4-3.5,3.1c-1.4,0.7-2.9,1-4.5,1c-2.2,0-4-0.5-5.5-1.4
		s-2.7-2.3-3.6-4c-0.8-1.8-1.3-3.8-1.3-6.2V35.9C350.6,33.5,351.1,31.4,351.9,29.7z"/>
	<path d="M411.1,30.9c-2.3,0-4.3,0.7-6.2,2c-1.5,1.1-2.7,2.5-3.7,4.2v-5.6h-10.3v40.9h10.3V48.3c0-2.5,0.6-4.4,1.9-5.9
		c1.3-1.4,3.1-2.1,5.4-2.1c1.2,0,2.2,0.2,3.1,0.5s1.6,0.8,2.2,1.5l5.9-8.2c-1.1-1.1-2.3-1.8-3.7-2.4
		C414.5,31.2,412.9,30.9,411.1,30.9z"/>
	<path d="M450.2,33.6c-2.5-1.8-5.5-2.6-9-2.6c-3.7,0-6.9,0.7-9.6,2.2c-2.7,1.5-4.7,3.7-6.1,6.5c-1.4,2.9-2.1,6.3-2.1,10.4v4.6
		c0,3.9,0.7,7.2,2.2,9.9c1.4,2.7,3.5,4.8,6.3,6.3c2.7,1.4,6.1,2.1,10,2.1c2.7,0,5.3-0.5,7.9-1.6s4.9-2.6,7-4.5l-6.4-5.9
		c-1.2,1.1-2.5,1.9-4,2.4c-1.5,0.6-3,0.8-4.5,0.8c-3,0-5.3-0.8-7-2.4c-1.4-1.4-2.2-3.4-2.4-5.9h25.4v-2.7c0-4.7-0.7-8.7-2-12.1
		C454.6,37.9,452.7,35.3,450.2,33.6z M432.4,49c0.1-2.8,0.9-5,2.3-6.6c1.5-1.7,3.7-2.6,6.4-2.6c2.2,0,3.9,0.7,5.2,2.2
		c1.3,1.5,2.1,3.6,2.4,6.3l0.1,0.6h-16.4V49z"/>
	<path d="M492,32.7c-2.5-1.2-5.5-1.8-9-1.8c-3.2,0-6.1,0.5-8.8,1.6c-2.6,1-4.7,2.5-6.3,4.4l6.4,5.6c1.2-0.9,2.5-1.6,4-2.1
		s3.1-0.7,4.7-0.7c2.4,0,4.3,0.6,5.6,1.8c1.3,1.2,2,2.9,2,5.1v1.7h-10.4c-4.8,0-8.4,1-10.7,3c-2.4,2-3.5,5.1-3.5,9.1
		c0,4.3,1.1,7.4,3.4,9.5s5.7,3.1,10.4,3.1c1.9,0,3.7-0.2,5.3-0.7c1.6-0.4,3-1.1,4.2-2c0.6-0.5,1-1,1.4-1.5v3.7h9V46.2
		c0-3.2-0.7-5.9-2-8.2C496.4,35.7,494.5,33.9,492,32.7z M488.5,64.2c-1.4,0.7-3.6,1-6.6,1c-2.4,0-4.1-0.4-5.3-1.2
		c-1.2-0.8-1.7-2-1.7-3.6s0.4-2.7,1.3-3.5c0.9-0.7,2.2-1.1,4.1-1.1h10.4v5.3C490.6,62.5,489.9,63.5,488.5,64.2z"/>
	<path d="M521.7,19.6H512v11.9h-4.2V40h4.2v21.8c0,3.6,0.8,6.3,2.4,8.1c1.6,1.8,4.2,2.7,7.6,2.7h5.1v-9.4H524
		c-0.8,0-1.3-0.3-1.7-0.8s-0.6-1.3-0.6-2.3V40h5.4v-8.5h-5.4V19.6z"/>
	<rect x="536.8" y="31.5" width="9.8" height="40.9"/>
	<rect x="536.8" y="15.1" width="9.8" height="9.8"/>
	<path d="M583,33c-2.6-1.4-5.7-2.1-9.4-2.1s-6.8,0.7-9.4,2.1c-2.6,1.4-4.6,3.4-5.9,6c-1.4,2.6-2,5.8-2,9.5v6.7c0,3.8,0.7,7,2,9.6
		c1.4,2.7,3.3,4.7,5.9,6.1c2.6,1.4,5.7,2.1,9.4,2.1s6.8-0.7,9.4-2.1s4.6-3.4,5.9-6.1c1.4-2.6,2-5.8,2-9.6v-6.8c0-3.7-0.7-6.9-2-9.5
		C587.6,36.4,585.6,34.4,583,33z M581.3,55.3c0,2.6-0.7,4.7-2,6.1c-1.3,1.5-3.2,2.2-5.6,2.2c-2.4,0-4.3-0.7-5.6-2.2s-2-3.5-2-6.1
		v-6.8c0-2.6,0.7-4.7,2-6.1c1.3-1.4,3.2-2.1,5.6-2.1c2.4,0,4.3,0.7,5.6,2.1c1.3,1.4,2,3.5,2,6.1V55.3z"/>
	<path d="M631.8,35.3c-2.4-2.9-5.8-4.4-10.1-4.4c-2.5,0-4.7,0.7-6.6,2c-1.5,1-2.7,2.5-3.8,4.3v-5.7h-9.7v40.9h9.7V47.3
		c0-2.2,0.6-3.9,1.8-5.1c1.2-1.2,3-1.8,5.2-1.8c2.3,0,4.1,0.6,5.4,1.9c1.3,1.3,1.9,3.1,1.9,5.4v24.8h9.7V47.6
		C635.3,42.3,634.1,38.2,631.8,35.3z"/>
</g>
<g>
	
		<linearGradient id="SVGID_1_" gradientUnits="userSpaceOnUse" x1="8.7" y1="67.2" x2="112.3" y2="67.2" gradientTransform="matrix(1 0 0 -1 0 130)">
		<stop  offset="0" style="stop-color:#00B3FF"/>
		<stop  offset="1" style="stop-color:#0043FF"/>
	</linearGradient>
	<path class="st1" d="M112.3,64.7c-0.2,4.5,0,9.1-0.8,13.5c-0.4,2.5-2.1,5.1-3.9,7c-8.1,8.5-16.5,16.7-24.8,25
		c-2.9,2.9-6.4,4.3-10.5,4.3c-19.1,0-38.1,0-57.2,0c-4,0-6.4-2.4-6.4-6.4c0-19,0-38,0-57c0-4.3,1.5-8,4.6-11
		c8.2-8.2,16.3-16.3,24.5-24.5c3-3.1,6.7-4.5,11-4.5c3.2,0,6.4,0,9.6,0c0.1,0.2,0.3,0.4,0.4,0.6c-2,1.9-4.1,3.7-6,5.6
		C42.2,27.6,31.8,38,21.5,48.4c-0.6,0.6-1.1,1.8-1.1,2.7c-0.1,10.8,0,21.5-0.1,32.3c0,1.4,0.5,2,1.8,2.5c7.3,2.7,12.4,7.7,14.9,15.1
		c0.5,1.5,1.2,1.8,2.7,1.8c10.6-0.1,21.3-0.1,31.9,0c1.5,0,2.5-0.5,3.5-1.5c11.8-11.9,23.6-23.7,35.5-35.5c0.4-0.4,0.6-0.8,0.9-1.2
		C111.8,64.6,112,64.7,112.3,64.7z"/>
	
		<linearGradient id="SVGID_2_" gradientUnits="userSpaceOnUse" x1="51.3" y1="88.7499" x2="112.0423" y2="88.7499" gradientTransform="matrix(1 0 0 -1 0 130)">
		<stop  offset="0" style="stop-color:#FFFF00"/>
		<stop  offset="1" style="stop-color:#FF4E00"/>
	</linearGradient>
	<path class="st2" d="M51.3,63.2c4.1-4.1,8.6-8.5,13-13c12.5-12.5,25.1-25,37.5-37.6c2-2,4.1-2,6.3-1.2c2.4,0.8,3.7,2.8,3.9,5.3
		c0.2,1.8-0.3,3.1-1.7,4.4C93.6,37.7,77,54.4,60.3,71c-0.3,0.3-0.7,0.6-0.7,0.6C56.9,68.9,54.2,66.1,51.3,63.2z"/>
	
		<linearGradient id="SVGID_3_" gradientUnits="userSpaceOnUse" x1="65.7" y1="67.1" x2="112.2424" y2="67.1" gradientTransform="matrix(1 0 0 -1 0 130)">
		<stop  offset="0" style="stop-color:#FF00B0"/>
		<stop  offset="1" style="stop-color:#FF060A"/>
	</linearGradient>
	<path class="st3" d="M71.2,91.5c-1.9-3.7-3.7-7.4-5.5-10.9c15.4-15.4,30.8-30.8,46.4-46.3c0,3.8-0.3,7.6,0.1,11.4
		c0.3,3.7-1,6.2-3.6,8.7c-12.1,11.9-24.1,24-36.1,36C72.1,90.8,71.6,91.1,71.2,91.5z"/>
	
		<linearGradient id="SVGID_4_" gradientUnits="userSpaceOnUse" x1="31.6" y1="95.85" x2="88.6" y2="95.85" gradientTransform="matrix(1 0 0 -1 0 130)">
		<stop  offset="0" style="stop-color:#00D200"/>
		<stop  offset="1" style="stop-color:#006C00"/>
	</linearGradient>
	<path class="st4" d="M42.3,57.3c-3.3-1.7-6.9-3.5-10.7-5.4c0.5-0.5,0.9-1,1.3-1.4C45.6,37.8,58.4,25,71.2,12.3
		c0.7-0.7,1.9-1.2,2.8-1.2C78.9,11,83.8,11,88.6,11C73.2,26.4,57.8,41.7,42.3,57.3z"/>
</g>
<g>
	<path d="M153,107.8c-0.8,2.8-2.8,5-6.6,5c-4.4,0-7.2-2.9-7.2-8.2c0-4.3,2.4-8.3,7.4-8.3c4.2,0,6.1,2.7,6.4,5.1h-1.8
		c-0.5-1.9-1.8-3.6-4.7-3.6c-3.6,0-5.5,2.8-5.5,6.7c0,3.9,1.9,6.7,5.4,6.7c2.5,0,4-1.3,4.8-3.5h1.8V107.8z"/>
	<path d="M177.4,101.4c0-2.6,0-4.1,0-4.6h1.7c0,0.6,0.1,1.6,0.1,3.5c1-2.4,3.1-3.8,5.9-3.9v1.8c-3.7,0.2-5.9,2.6-5.9,6.2v8.1h-1.8
		V101.4z"/>
	<path d="M209.1,104.8c0,4,2.1,6.5,5.4,6.5c3.2,0,4.2-1.8,4.8-3h1.8c-0.6,1.9-2.3,4.5-6.7,4.5c-5.2,0-7.1-4.1-7.1-8.2
		c0-4.3,2.3-8.3,7.3-8.3c5.2,0,6.9,4.1,6.9,7.2c0,0.3,0,1,0,1.2h-12.4V104.8z M219.6,103.4c-0.1-3.1-1.8-5.5-5.1-5.5
		c-3.6,0-5,2.6-5.3,5.5H219.6z"/>
	<path d="M257.7,109.4c0,1.3,0.1,2.5,0.3,3.1h-1.7c-0.1-0.4-0.2-1.2-0.3-2.5c-0.6,1.3-2.2,2.9-5.5,2.9c-4,0-5.6-2.5-5.6-4.7
		c0-3,2.5-5,7.9-5c1.4,0,2.4,0,3.2,0v-1.6c0-1.6-0.5-3.6-4.2-3.6c-3.2,0-3.9,1.5-4.3,3h-1.8c0.2-2.1,1.6-4.5,6.1-4.5
		c3.7,0,6,1.5,6,4.9v8H257.7z M256,104.5c-0.7,0-2.1,0-3.3,0c-4.1,0-6,1.2-6,3.6c0,1.9,1.4,3.3,3.8,3.3c4.5,0,5.4-2.8,5.4-6.4v-0.5
		H256z"/>
	<path d="M281.1,96.7h3.1v-4.9h1.8v4.9h4v1.5h-4v10.4c0,1.7,0.4,2.5,2,2.5c0.5,0,1.2,0,1.7-0.2v1.4c-0.6,0.2-1.4,0.3-2.1,0.3
		c-2.1,0-3.4-0.9-3.4-3.4v-11h-3.1V96.7z"/>
	<path d="M313.9,89.4h1.8v3.1h-1.8V89.4z M313.9,96.7h1.8v15.8h-1.8V96.7z"/>
	<path d="M341.4,96.7c2.7,7.3,4.6,12.1,5.2,14.1l0,0c0.4-1.3,2.9-7.7,5.4-14.1h1.8l-6.3,15.8h-2.1l-6-15.8H341.4z"/>
	<path d="M378.3,104.8c0,4,2.1,6.5,5.4,6.5c3.2,0,4.2-1.8,4.8-3h1.8c-0.6,1.9-2.3,4.5-6.7,4.5c-5.2,0-7.1-4.1-7.1-8.2
		c0-4.3,2.3-8.3,7.3-8.3c5.2,0,6.9,4.1,6.9,7.2c0,0.3,0,1,0,1.2h-12.4V104.8z M388.8,103.4c-0.1-3.1-1.8-5.5-5.1-5.5
		c-3.6,0-5,2.6-5.3,5.5H388.8z"/>
	<path d="M457.7,89.4v18.8c0,1.5,0,2.9,0,4.3H456c-0.1-0.4-0.1-1.7-0.1-2.6c-0.9,2-2.7,3-5.6,3c-4.5,0-7-3.4-7-8.1s2.8-8.4,7.4-8.4
		c3.3,0,4.6,1.3,5.1,2.3v-9.3H457.7z M445.2,104.7c0,4.3,2.4,6.6,5.3,6.6c4.4,0,5.5-2.9,5.5-7.1c0-4.3-1.3-6.3-5.2-6.3
		C447.4,97.9,445.2,100.4,445.2,104.7z"/>
	<path d="M484.2,104.8c0,4,2.1,6.5,5.4,6.5c3.2,0,4.2-1.8,4.8-3h1.8c-0.6,1.9-2.3,4.5-6.7,4.5c-5.2,0-7.1-4.1-7.1-8.2
		c0-4.3,2.3-8.3,7.3-8.3c5.2,0,6.9,4.1,6.9,7.2c0,0.3,0,1,0,1.2h-12.4V104.8z M494.8,103.4c-0.1-3.1-1.8-5.5-5.1-5.5
		c-3.6,0-5,2.6-5.3,5.5H494.8z"/>
	<path d="M521.7,108.1c0.5,2.1,2.1,3.2,4.7,3.2c3,0,4.1-1.4,4.1-3c0-1.7-0.9-2.6-4.5-3.5c-4.3-1-5.4-2.3-5.4-4.3
		c0-2.2,1.7-4.2,5.6-4.2c3.9,0,5.6,2.2,5.9,4.4h-1.8c-0.3-1.4-1.4-2.9-4.2-2.9s-3.7,1.3-3.7,2.6c0,1.4,0.8,2.2,4.1,2.9
		c4.6,1.1,5.9,2.5,5.9,4.9c0,2.8-2.4,4.6-6,4.6c-3.7,0-6-1.8-6.5-4.7H521.7z"/>
	<path d="M557,89.4h1.8v3.1H557V89.4z M557,96.7h1.8v15.8H557V96.7z"/>
	<path d="M597.7,111.4c0,5-2.3,7.7-7.3,7.7c-4.6,0-6.3-2.3-6.6-4.6h1.8c0.6,2.1,2.5,3.1,4.9,3.1c4.4,0,5.5-2.6,5.5-6.6v-1.6
		c-0.9,2-2.5,3.1-5.6,3.1c-4,0-6.9-3.1-6.9-7.9c0-5.2,3.2-8.2,7.2-8.2c3.2,0,4.8,1.4,5.3,2.7c0-0.9,0.1-2,0.1-2.3h1.7
		c0,0.6-0.1,2.8-0.1,4.5L597.7,111.4L597.7,111.4z M585.4,104.6c0,3.9,2.1,6.4,5.3,6.4c4.1,0,5.4-2.5,5.4-6.6c0-4.3-1.3-6.5-5.3-6.5
		C587.1,97.9,585.4,100.9,585.4,104.6z"/>
	<path d="M623.8,101c0-2,0-3.2,0-4.3h1.7c0.1,0.4,0.1,2.4,0.1,2.9c0.7-1.6,2.2-3.3,5.5-3.3c3,0,5.7,1.5,5.7,6v10.2H635v-9.9
		c0-2.7-1.2-4.6-4.1-4.6c-3.9,0-5.3,3-5.3,6.4v8.1h-1.8L623.8,101L623.8,101z"/>
</g>
</svg>
